<?xml version="1.0" encoding="utf-8"?>
<!-- Generator: Adobe Illustrator 18.1.1, SVG Export Plug-In . SVG Version: 6.00 Build 0)  -->
<svg version="1.1" id="Layer_1" xmlns="http://www.w3.org/2000/svg" xmlns:xlink="http://www.w3.org/1999/xlink" x="0px" y="0px"
	 viewBox="0 0 150 150" enable-background="new 0 0 150 150" xml:space="preserve">
<path fill="#73C48B" d="M150,0H0v150h38.8c-12.4-7.8-21.5-19.9-24.4-34.6C8.4,85,31,54.9,64.8,48.3c33.8-6.6,66,12.6,72,43
	c4.6,23.2-7.5,46.2-28.5,58.7H150V0z"/>
<path fill="#E8DFDF" d="M44.9,59.6c6.9,10.8-1.4,14.3-8.9,19.1c-7.4,4.8-15.2,11.6-22.1,0.8S8.1,52.8,15.6,48S38,48.8,44.9,59.6z"/>
<path fill="#FFFFFF" d="M40.1,62.6c1.9,2.9-0.8,7.9-6.7,11.7c-5.9,3.8-12.5,5.5-14.7,2c-5.5-8.6-5.2-18.6,0.7-22.4
	S34.6,54.1,40.1,62.6z"/>
<path fill="#E8DFDF" d="M118.9,59.4C116.2,71.9,104.6,80,96,78.1c-8.6-1.9-15.8-14.1-13.1-26.6s14.8-23,23.4-21.1
	S121.6,46.9,118.9,59.4z"/>
<path fill="#FFFFFF" d="M113.3,58.2c-0.7,3.4-6.2,5.1-13,3.6c-6.9-1.5-12.7-5-11.8-9c2.2-9.9,9.5-16.8,16.4-15.3
	C111.7,38.9,115.5,48.2,113.3,58.2z"/>
<path fill="#E8DFDF" d="M136.8,91.3c-6-30.4-38.2-49.6-72-43C31,54.9,8.4,85,14.4,115.4c2.9,14.7,12,26.8,24.4,34.6h69.5
	C129.3,137.5,141.3,114.5,136.8,91.3z"/>
<ellipse transform="matrix(-0.9812 0.1929 -0.1929 -0.9812 127.579 203.0712)" fill="#414042" cx="53.9" cy="107.7" rx="5.2" ry="8.1"/>
<ellipse transform="matrix(-0.9812 0.1929 -0.1929 -0.9812 212.0018 177.7682)" fill="#414042" cx="97.3" cy="99.2" rx="5.2" ry="8.1"/>
<path fill="#414042" d="M84.8,122l-3.2,4.8c-0.6,0.8-1.7,1.1-2.6,0.5l-4.8-3.2c-1.4-0.9-0.9-3,0.7-3.4l8.1-1.6
	C84.5,118.8,85.7,120.6,84.8,122z"/>
<ellipse transform="matrix(-0.5589 0.8292 -0.8292 -0.5589 133.3174 131.1075)" fill="#B4A292" cx="31.8" cy="101" rx="9.5" ry="3.8"/>
<ellipse transform="matrix(-0.5589 0.8292 -0.8292 -0.5589 208.1952 16.6686)" fill="#B4A292" cx="99.7" cy="63.7" rx="7.9" ry="7.4"/>
<g>
	<path fill="none" stroke="#414042" stroke-width="2" stroke-linecap="round" stroke-miterlimit="10" d="M80.2,126.7
		c0.6,3-1.8,6.1-5.3,6.8s-6.9-1.2-7.5-4.3"/>
	<path fill="none" stroke="#414042" stroke-width="2" stroke-linecap="round" stroke-miterlimit="10" d="M93,124.2
		c0.6,3-1.8,6.1-5.3,6.8c-3.5,0.7-6.9-1.2-7.5-4.3"/>
</g>
<g>
	<path fill="#FFFFFF" d="M64.1,119.7c0.1-0.5-0.1-1-3.3-1.6c-3.1-0.6-8.1-0.6-8.1-0.6s4.6,1.9,7.7,2.5
		C63.6,120.5,64,120.2,64.1,119.7z"/>
	<path fill="#FFFFFF" d="M60.9,122.3c-3.7,0.1-9.3,1.4-9.3,1.4s5.6,0.9,9.3,0.8c3.7-0.1,4.1-0.6,4-1.2
		C64.9,122.6,64.6,122.1,60.9,122.3z"/>
	<path fill="#FFFFFF" d="M62.2,126.7c-2.8,1-6.8,3.2-6.8,3.2s4.5-0.8,7.2-1.8c2.8-1,3-1.4,2.8-1.8C65.4,125.9,65,125.7,62.2,126.7z"
		/>
</g>
<g>
	<path fill="#FFFFFF" d="M92.7,114.1c-0.3-0.4-0.2-1,2.4-2.7c2.7-1.8,7.3-3.6,7.3-3.6s-3.6,3.5-6.2,5.2
		C93.5,114.7,93,114.5,92.7,114.1z"/>
	<path fill="#FFFFFF" d="M96.7,115.3c3.5-1.3,9.1-2.2,9.1-2.2s-4.9,3-8.3,4.3c-3.5,1.3-4,1-4.2,0.4C93,117.2,93.2,116.6,96.7,115.3z
		"/>
	<path fill="#FFFFFF" d="M97.1,119.9c3-0.1,7.5,0.4,7.5,0.4s-4.5,0.9-7.4,1c-3,0.1-3.3-0.2-3.3-0.6C93.9,120.3,94.2,120,97.1,119.9z
		"/>
</g>
</svg>
