<svg xmlns="http://www.w3.org/2000/svg" viewBox="0 0 8.49 8.93">
  <defs>
    <style>
      .cls-1 {
        fill: red;
      }
    </style>
  </defs>
  <title>Asset 6</title>
  <g id="Layer_2" data-name="Layer 2"><g id="Layer_1-2" data-name="Layer 1"><path class="cls-1" d="M.55,2A3.58,3.58,0,0,1,2.16.52,5.75,5.75,0,0,1,4.72,0,12.4,12.4,0,0,1,6.45.13q.89.13,1.42.25L7.71,2.68H6L5.61,1.14A.68.68,0,0,0,5.3,1,2,2,0,0,0,4.69.89a1.49,1.49,0,0,0-1.4.89A5.83,5.83,0,0,0,2.83,4.4a7.14,7.14,0,0,0,.39,2.68A1.34,1.34,0,0,0,4.52,8a1.91,1.91,0,0,0,.63-.1,1,1,0,0,0,.41-.25V5.23L4.63,5.1v-1H8.49v1l-.55.09V8.32a1.78,1.78,0,0,0-.36,0L7,8.51q-.76.19-1.38.31a7.21,7.21,0,0,1-1.31.11A4.48,4.48,0,0,1,2,8.35,3.72,3.72,0,0,1,.5,6.77,5.05,5.05,0,0,1,0,4.51,5.08,5.08,0,0,1,.55,2Z"/></g></g></svg>
