<svg xmlns="http://www.w3.org/2000/svg" viewBox="0 0 8.69 8.92">
  <defs>
    <style>
      .cls-1{fill:red;}
    </style>
  </defs>
  <title>Asset 3</title><g id="Layer_2" data-name="Layer 2"><g id="Layer_1-2" data-name="Layer 1"><path class="cls-1" d="M.87,7.89V1.18L0,1V0H4.11A7.53,7.53,0,0,1,6.22.24,2,2,0,0,1,7.35,1a2.39,2.39,0,0,1,.35,1.37,2.88,2.88,0,0,1-.18,1A2.52,2.52,0,0,1,7,4.22,2.17,2.17,0,0,1,6,4.8a1.83,1.83,0,0,1,.78.48A3.25,3.25,0,0,1,7.34,6q.21.39.45,1t.33.69a.5.5,0,0,0,.27.26l.29.1v.89H6.09q-.18,0-.35-.37T5.31,7.37q-.21-.64-.37-1.06a4.12,4.12,0,0,0-.35-.73.83.83,0,0,0-.43-.39H3.3V7.9l1,.13v.89H0V8Zm4-4a2.75,2.75,0,0,0,.3-1.44,2,2,0,0,0-.29-1.22A1.13,1.13,0,0,0,3.91.84a1.62,1.62,0,0,0-.6.07V4.3a.9.9,0,0,0,.29,0H4A1,1,0,0,0,4.85,3.87Z"/></g></g></svg>
